<mxfile host="app.diagrams.net" modified="2023-01-26T09:26:13.142Z" agent="5.0 (Windows NT 10.0; Win64; x64) AppleWebKit/537.36 (KHTML, like Gecko) Chrome/109.0.0.0 Safari/537.36" etag="8qMh1U1ohaXRFIgRrkSo" version="20.8.11" type="github">
  <diagram name="Trang-1" id="Bi3xa2sIshBTZINp3Eb9">
    <mxGraphModel dx="1061" dy="597" grid="1" gridSize="10" guides="1" tooltips="1" connect="1" arrows="1" fold="1" page="1" pageScale="1" pageWidth="827" pageHeight="1169" math="0" shadow="0">
      <root>
        <mxCell id="0" />
        <mxCell id="1" parent="0" />
        <mxCell id="dFaQmx1nfyAwwpfzMTQI-3" style="rounded=0;orthogonalLoop=1;jettySize=auto;html=1;edgeStyle=entityRelationEdgeStyle;" edge="1" parent="1" source="dFaQmx1nfyAwwpfzMTQI-1" target="dFaQmx1nfyAwwpfzMTQI-2">
          <mxGeometry relative="1" as="geometry" />
        </mxCell>
        <mxCell id="dFaQmx1nfyAwwpfzMTQI-1" value="" style="ellipse;whiteSpace=wrap;html=1;aspect=fixed;" vertex="1" parent="1">
          <mxGeometry x="100" y="110" width="90" height="90" as="geometry" />
        </mxCell>
        <mxCell id="dFaQmx1nfyAwwpfzMTQI-2" value="154454" style="ellipse;whiteSpace=wrap;html=1;aspect=fixed;fillColor=#dae8fc;strokeColor=#6c8ebf;dashed=1;strokeWidth=2;shadow=0;sketch=1;curveFitting=1;jiggle=2;fontStyle=5;horizontal=1;" vertex="1" parent="1">
          <mxGeometry x="310" y="130" width="150" height="150" as="geometry" />
        </mxCell>
        <mxCell id="dFaQmx1nfyAwwpfzMTQI-5" style="edgeStyle=entityRelationEdgeStyle;rounded=0;orthogonalLoop=1;jettySize=auto;html=1;" edge="1" parent="1" source="dFaQmx1nfyAwwpfzMTQI-4" target="dFaQmx1nfyAwwpfzMTQI-2">
          <mxGeometry relative="1" as="geometry" />
        </mxCell>
        <mxCell id="dFaQmx1nfyAwwpfzMTQI-4" value="" style="ellipse;shape=cloud;whiteSpace=wrap;html=1;shadow=0;dashed=1;sketch=1;strokeWidth=2;" vertex="1" parent="1">
          <mxGeometry x="85" y="230" width="120" height="80" as="geometry" />
        </mxCell>
        <mxCell id="dFaQmx1nfyAwwpfzMTQI-6" value="" style="shape=flexArrow;endArrow=classic;startArrow=classic;html=1;rounded=0;" edge="1" parent="1">
          <mxGeometry width="100" height="100" relative="1" as="geometry">
            <mxPoint x="480" y="280" as="sourcePoint" />
            <mxPoint x="640" y="70" as="targetPoint" />
            <Array as="points" />
          </mxGeometry>
        </mxCell>
        <mxCell id="dFaQmx1nfyAwwpfzMTQI-7" value="" style="strokeWidth=2;html=1;shape=mxgraph.flowchart.annotation_2;align=left;labelPosition=right;pointerEvents=1;shadow=0;dashed=1;sketch=1;" vertex="1" parent="1">
          <mxGeometry x="240" y="330" width="170" height="150" as="geometry" />
        </mxCell>
      </root>
    </mxGraphModel>
  </diagram>
</mxfile>
